G04 Layer_Color=128*
%FSAX24Y24*%
%MOIN*%
G70*
G01*
G75*
%ADD14C,0.0020*%
D14*
X001923Y014300D02*
X002277D01*
X002100Y014123D02*
Y014477D01*
X001923Y013300D02*
X002277D01*
X002100Y013123D02*
Y013477D01*
X018250Y002850D02*
X018650D01*
X018450Y002650D02*
Y003050D01*
X017250Y002850D02*
X017650D01*
X017450Y002650D02*
Y003050D01*
X016250Y002850D02*
X016650D01*
X016450Y002650D02*
Y003050D01*
X015250Y002850D02*
X015650D01*
X015450Y002650D02*
Y003050D01*
X014250Y002850D02*
X014650D01*
X014450Y002650D02*
Y003050D01*
X013250Y002850D02*
X013650D01*
X013450Y002650D02*
Y003050D01*
X012250Y002850D02*
X012650D01*
X012450Y002650D02*
Y003050D01*
X011250Y002850D02*
X011650D01*
X011450Y002650D02*
Y003050D01*
X010250Y002850D02*
X010650D01*
X010450Y002650D02*
Y003050D01*
X009250Y002850D02*
X009650D01*
X009450Y002650D02*
Y003050D01*
X008250Y002850D02*
X008650D01*
X008450Y002650D02*
Y003050D01*
X007250Y002850D02*
X007650D01*
X007450Y002650D02*
Y003050D01*
X018250Y008850D02*
X018650D01*
X018450Y008650D02*
Y009050D01*
X017250Y008850D02*
X017650D01*
X017450Y008650D02*
Y009050D01*
X016250Y008850D02*
X016650D01*
X016450Y008650D02*
Y009050D01*
X015250Y008850D02*
X015650D01*
X015450Y008650D02*
Y009050D01*
X014250Y008850D02*
X014650D01*
X014450Y008650D02*
Y009050D01*
X013250Y008850D02*
X013650D01*
X013450Y008650D02*
Y009050D01*
X012250Y008850D02*
X012650D01*
X012450Y008650D02*
Y009050D01*
X011250Y008850D02*
X011650D01*
X011450Y008650D02*
Y009050D01*
X010250Y008850D02*
X010650D01*
X010450Y008650D02*
Y009050D01*
X009250Y008850D02*
X009650D01*
X009450Y008650D02*
Y009050D01*
X008250Y008850D02*
X008650D01*
X008450Y008650D02*
Y009050D01*
X007250Y008850D02*
X007650D01*
X007450Y008650D02*
Y009050D01*
X002050Y008300D02*
X002450D01*
X002250Y008100D02*
Y008500D01*
X002050Y007513D02*
X002450D01*
X002250Y007313D02*
Y007713D01*
X002050Y006725D02*
X002450D01*
X002250Y006525D02*
Y006925D01*
X002050Y005938D02*
X002450D01*
X002250Y005738D02*
Y006138D01*
X002050Y005150D02*
X002450D01*
X002250Y004950D02*
Y005350D01*
X026300Y003800D02*
X026700D01*
X026500Y003600D02*
Y004000D01*
X025300Y003800D02*
X025700D01*
X025500Y003600D02*
Y004000D01*
X024300Y003800D02*
X024700D01*
X024500Y003600D02*
Y004000D01*
X023300Y003800D02*
X023700D01*
X023500Y003600D02*
Y004000D01*
X026300Y002800D02*
X026700D01*
X026500Y002600D02*
Y003000D01*
X025300Y002800D02*
X025700D01*
X025500Y002600D02*
Y003000D01*
X024300Y002800D02*
X024700D01*
X024500Y002600D02*
Y003000D01*
X023300Y002800D02*
X023700D01*
X023500Y002600D02*
Y003000D01*
M02*
