G04 Layer_Color=2752767*
%FSAX24Y24*%
%MOIN*%
G70*
G01*
G75*
%ADD14C,0.0020*%
%ADD15C,0.0027*%
D14*
X002720Y024720D02*
Y024880D01*
X002880D01*
Y024720D01*
X002720D01*
Y023720D02*
Y023880D01*
X002880D01*
Y023720D01*
X002720D01*
Y022720D02*
Y022880D01*
X002880D01*
Y022720D01*
X002720D01*
Y021720D02*
Y021880D01*
X002880D01*
Y021720D01*
X002720D01*
Y020720D02*
Y020880D01*
X002880D01*
Y020720D01*
X002720D01*
Y019720D02*
Y019880D01*
X002880D01*
Y019720D01*
X002720D01*
Y018720D02*
Y018880D01*
X002880D01*
Y018720D01*
X002720D01*
Y017720D02*
Y017880D01*
X002880D01*
Y017720D01*
X002720D01*
Y016720D02*
Y016880D01*
X002880D01*
Y016720D01*
X002720D01*
Y015720D02*
Y015880D01*
X002880D01*
Y015720D01*
X002720D01*
Y014720D02*
Y014880D01*
X002880D01*
Y014720D01*
X002720D01*
Y013720D02*
Y013880D01*
X002880D01*
Y013720D01*
X002720D01*
X008720Y024720D02*
Y024880D01*
X008880D01*
Y024720D01*
X008720D01*
Y023720D02*
Y023880D01*
X008880D01*
Y023720D01*
X008720D01*
Y022720D02*
Y022880D01*
X008880D01*
Y022720D01*
X008720D01*
Y021720D02*
Y021880D01*
X008880D01*
Y021720D01*
X008720D01*
Y020720D02*
Y020880D01*
X008880D01*
Y020720D01*
X008720D01*
Y019720D02*
Y019880D01*
X008880D01*
Y019720D01*
X008720D01*
Y018720D02*
Y018880D01*
X008880D01*
Y018720D01*
X008720D01*
Y017720D02*
Y017880D01*
X008880D01*
Y017720D01*
X008720D01*
Y016720D02*
Y016880D01*
X008880D01*
Y016720D01*
X008720D01*
Y015720D02*
Y015880D01*
X008880D01*
Y015720D01*
X008720D01*
Y014720D02*
Y014880D01*
X008880D01*
Y014720D01*
X008720D01*
Y013720D02*
Y013880D01*
X008880D01*
Y013720D01*
X008720D01*
X000420Y001570D02*
Y001730D01*
X000580D01*
Y001570D01*
X000420D01*
Y002357D02*
Y002517D01*
X000580D01*
Y002357D01*
X000420D01*
Y003145D02*
Y003305D01*
X000580D01*
Y003145D01*
X000420D01*
Y003932D02*
Y004092D01*
X000580D01*
Y003932D01*
X000420D01*
Y004720D02*
Y004880D01*
X000580D01*
Y004720D01*
X000420D01*
X002920Y010170D02*
Y010330D01*
X003080D01*
Y010170D01*
X002920D01*
Y009170D02*
Y009330D01*
X003080D01*
Y009170D01*
X002920D01*
Y008170D02*
Y008330D01*
X003080D01*
Y008170D01*
X002920D01*
Y007170D02*
Y007330D01*
X003080D01*
Y007170D01*
X002920D01*
X001920Y010170D02*
Y010330D01*
X002080D01*
Y010170D01*
X001920D01*
Y009170D02*
Y009330D01*
X002080D01*
Y009170D01*
X001920D01*
Y008170D02*
Y008330D01*
X002080D01*
Y008170D01*
X001920D01*
Y007170D02*
Y007330D01*
X002080D01*
Y007170D01*
X001920D01*
D15*
X009030Y003200D02*
G03*
X009030Y003200I-000080J000000D01*
G01*
Y004200D02*
G03*
X009030Y004200I-000080J000000D01*
G01*
M02*
