G04 Layer_Physical_Order=2*
G04 Layer_Color=16711680*
%FSAX24Y24*%
%MOIN*%
G70*
G01*
G75*
%ADD10C,0.0740*%
%ADD11R,0.0591X0.0591*%
%ADD12C,0.0591*%
%ADD13C,0.0100*%
D10*
X002800Y024800D02*
D03*
Y023800D02*
D03*
Y022800D02*
D03*
Y021800D02*
D03*
Y020800D02*
D03*
Y019800D02*
D03*
Y018800D02*
D03*
Y017800D02*
D03*
Y016800D02*
D03*
Y015800D02*
D03*
Y014800D02*
D03*
Y013800D02*
D03*
X008800Y024800D02*
D03*
Y023800D02*
D03*
Y022800D02*
D03*
Y021800D02*
D03*
Y020800D02*
D03*
Y019800D02*
D03*
Y018800D02*
D03*
Y017800D02*
D03*
Y016800D02*
D03*
Y015800D02*
D03*
Y014800D02*
D03*
Y013800D02*
D03*
X003000Y010250D02*
D03*
Y009250D02*
D03*
Y008250D02*
D03*
Y007250D02*
D03*
X002000Y010250D02*
D03*
Y009250D02*
D03*
Y008250D02*
D03*
Y007250D02*
D03*
D11*
X008950Y003200D02*
D03*
D12*
Y004200D02*
D03*
X000500Y001650D02*
D03*
Y002437D02*
D03*
Y003225D02*
D03*
Y004012D02*
D03*
Y004800D02*
D03*
D13*
X010550Y018000D02*
X012900D01*
Y007150D02*
Y018000D01*
X010550D02*
Y026150D01*
X012200Y010150D02*
Y017450D01*
X009900D02*
X012200D01*
X005400Y026150D02*
X010550D01*
X001000Y007250D02*
X002000Y008250D01*
X001000Y006650D02*
Y007250D01*
X000500Y001650D02*
X009100D01*
X008950Y003200D02*
X012900Y007150D01*
X003050Y023800D02*
X005400Y026150D01*
X002800Y023800D02*
X003050D01*
X003350Y005750D02*
X008800Y011200D01*
X001900Y005750D02*
X003350D01*
X001000Y006650D02*
X001900Y005750D01*
X000450Y017500D02*
X001350Y018400D01*
X000450Y004850D02*
Y017500D01*
X002800Y013800D02*
X004400Y012200D01*
Y009350D02*
Y012200D01*
X003300Y008250D02*
X004400Y009350D01*
X002800Y021800D02*
X004900Y019700D01*
Y008950D02*
Y019700D01*
X003200Y007250D02*
X004900Y008950D01*
X001100Y010150D02*
Y016750D01*
X001050Y016800D02*
X001100Y016750D01*
X001050Y016800D02*
X002800D01*
X001100Y010150D02*
X002000Y009250D01*
X001850Y015800D02*
X002800D01*
X001550Y015500D02*
X001850Y015800D01*
X001900Y010350D02*
Y010750D01*
X001550Y011100D02*
X001900Y010750D01*
X001550Y011100D02*
Y015500D01*
X002300Y014800D02*
X002800D01*
X002050Y014550D02*
X002300Y014800D01*
X002050Y012550D02*
Y014550D01*
Y012550D02*
X002150Y012450D01*
Y012500D01*
X002950D01*
X008950Y003200D02*
X009100Y003050D01*
Y001650D02*
Y003050D01*
X008950Y004200D02*
X009150Y004400D01*
Y007100D01*
X000500Y004012D02*
X002412D01*
X000500Y003225D02*
X002475D01*
X000500Y002437D02*
X002937D01*
X001900Y007500D02*
X002150Y007250D01*
X002000Y006450D02*
X003300D01*
X002000D02*
Y007250D01*
X003000D02*
X003200D01*
X003000Y008250D02*
X003300D01*
X003000Y009250D02*
X003750Y010000D01*
X001900Y010350D02*
X002000Y010250D01*
X009150Y007100D02*
X012200Y010150D01*
X009750Y017600D02*
X009900Y017450D01*
X009750Y017600D02*
Y025600D01*
X006600D02*
X009750D01*
X002800Y021800D02*
X006600Y025600D01*
X011300Y016800D02*
X011450Y016650D01*
Y010950D02*
Y016650D01*
X002937Y002437D02*
X011450Y010950D01*
X008800Y016800D02*
X011300D01*
X002475Y003225D02*
X010800Y011550D01*
Y015400D01*
X010400Y015800D02*
X010800Y015400D01*
X002550Y023550D02*
X002800Y023800D01*
X001350Y020350D02*
X002800Y021800D01*
X001350Y018400D02*
Y020350D01*
X005350Y008500D02*
Y021800D01*
X003300Y006450D02*
X005350Y008500D01*
X008800Y011200D02*
Y013800D01*
X005350Y021800D02*
X008800D01*
Y015800D02*
X010400D01*
X009850Y014800D02*
X009950Y014700D01*
Y011550D02*
Y014700D01*
X002412Y004012D02*
X009950Y011550D01*
X008800Y014800D02*
X009850D01*
X002950Y012500D02*
X003750Y011700D01*
Y010000D02*
Y011700D01*
M02*
