M48
;Layer_Color=9474304
;FILE_FORMAT=2:4
INCH
;TYPE=PLATED
T1F00S00C0.0354
T2F00S00C0.0400
%
T01
X008950Y003200
Y004200
T02
X000500Y001650
Y002437
Y003225
Y004012
Y004800
X008800Y013800
Y014800
Y015800
Y016800
Y017800
Y018800
Y019800
Y020800
X002800
Y019800
Y018800
Y017800
Y016800
Y015800
Y014800
Y013800
X003000Y010250
Y009250
Y008250
Y007250
X002000
Y008250
Y009250
Y010250
X002800Y021800
Y022800
Y023800
Y024800
X008800
Y023800
Y022800
Y021800
M30
